<svg width="32" height="32" viewBox="0 0 32 32" fill="none" xmlns="http://www.w3.org/2000/svg">
<path d="M27.3387 4.64613C24.4548 1.77564 20.471 0 16.0702 0C7.26966 0 0.134008 7.10151 0.134008 15.8623C0.134008 18.7776 0.924118 21.5083 2.30172 23.8559L2.26098 23.7812L0 32L8.44678 29.7943C10.6456 31.0097 13.2689 31.7247 16.0606 31.7247H16.067C24.8676 31.7215 32 24.6189 32 15.8591C32 11.4809 30.2182 7.51767 27.3376 4.64719L27.3387 4.64613ZM16.067 29.0452H16.0616C13.5755 29.0452 11.2481 28.3623 9.26155 27.1746L9.32159 27.2077L8.83809 26.9228L3.82619 28.2321L5.16305 23.3672L4.84787 22.8689C3.57747 20.882 2.82274 18.4607 2.82274 15.8634C2.82274 8.5837 8.75232 2.68161 16.0659 2.68161C23.3795 2.68161 29.3091 8.5837 29.3091 15.8634C29.3091 23.1431 23.3817 29.0452 16.067 29.0452ZM23.3313 19.1735C22.9336 18.9751 20.976 18.0179 20.6115 17.8845C20.2459 17.7522 19.98 17.6871 19.7142 18.084C19.4504 18.4799 18.6871 19.372 18.4545 19.6367C18.2229 19.9024 17.9892 19.9344 17.5915 19.737C16.3586 19.2397 15.2994 18.577 14.3785 17.7607L14.3892 17.7703C13.5326 16.9807 12.7983 16.0768 12.2054 15.0802L12.1754 15.0247C11.9439 14.6288 12.1508 14.4143 12.3491 14.2169C12.5281 14.0397 12.7479 13.7538 12.9462 13.5233C13.1028 13.3323 13.2368 13.1135 13.3386 12.8788L13.345 12.8606C13.3911 12.7678 13.4179 12.66 13.4179 12.5448C13.4179 12.405 13.3783 12.2748 13.3097 12.1638L13.3118 12.167C13.211 11.9685 12.4156 10.0179 12.0843 9.22396C11.7605 8.45138 11.4314 8.55702 11.188 8.54422C10.9565 8.53355 10.6906 8.53141 10.4247 8.53141C10.0013 8.54208 9.62498 8.73203 9.36554 9.02548L9.36447 9.02761C8.50467 9.83967 7.97079 10.9847 7.97079 12.2534C7.97079 12.2812 7.97079 12.31 7.97186 12.3377V12.3335C8.1123 13.8989 8.70193 15.3043 9.6089 16.4492L9.59603 16.4332C11.3156 18.9719 13.6077 21.0025 16.2975 22.3705L16.3983 22.4164C16.9858 22.6811 17.7383 22.9639 18.5081 23.2061L18.6678 23.2498C19.1417 23.3992 19.6874 23.4857 20.2534 23.4857C20.5782 23.4857 20.8977 23.4568 21.2065 23.4024L21.1732 23.4067C22.3193 23.1687 23.2702 22.4805 23.8502 21.5403L23.8598 21.5222C24.0367 21.1317 24.1396 20.676 24.1396 20.1969C24.1396 19.9995 24.1225 19.8063 24.0892 19.6185L24.0925 19.6388C23.9938 19.4734 23.728 19.3752 23.3292 19.1757L23.3313 19.1735Z" fill="white"/>
</svg>
